PathFileType	4	(X/Y/Z)	7_coords_data.trc
DataRate	CameraRate	NumFrames	NumMarkers	Units	OrigDataRate	OrigDataStartFrame	OrigNumFrames
30.0	30.0	4	21	m	30.0	1	47
Frame#	Time	THUMB_TIP	THUMB_IP	THUMB_MCP	THUMB_CMC	INDEX_TIP	INDEX_DIP	INDEX_PIP	INDEX_MCP	MIDDLE_TIP	MIDDLE_DIP	MIDDLE_PIP	MIDDLE_MCP	RING_TIP	RING_DIP	RING_PIP	RING_MCP	PINKY_TIP	PINKY_DIP	PINKY_PIP	PINKY_MCP	WRIST
X1	Y1	Z1	X2	Y2	Z2	X3	Y3	Z3	X4	Y4	Z4	X5	Y5	Z5	X6	Y6	Z6	X7	Y7	Z7	X8	Y8	Z8	X9	Y9	Z9	X10	Y10	Z10	X11	Y11	Z11	X12	Y12	Z12	X13	Y13	Z13	X14	Y14	Z14	X15	Y15	Z15	X16	Y16	Z16	X17	Y17	Z17	X18	Y18	Z18	X19	Y19	Z19	X20	Y20	Z20	X21	Y21	Z21
0	0.0	0.0011699800491332998	0.004120329856872559	0.9656820068359375	-0.0018977400064468378	-0.011822400093078613	0.9832550048828125	-0.015766599655151366	-0.010419599533081055	1.010030029296875	-0.02112070083618164	0.017438600540161133	1.0219400024414063	-0.03016860008239746	-0.014447299957275391	0.9938170166015625	-0.01739069938659668	-0.01658270072937012	0.9769169921875	-0.0241299991607666	-0.017373600006103516	0.9586259765625	-0.055936500549316405	-0.011857399940490723	0.97677001953125	-0.02072920036315918	0.002819269895553589	0.995822021484375	-0.013088600158691406	0.0055463299751281735	0.98943701171875	-0.013684100151062011	0.007565549850463867	0.9623709716796875	-0.054699798583984376	0.010547800064086914	0.9688619995117187	-0.01223639965057373	0.013856200218200684	0.97956298828125	-0.014122300148010254	0.0220939998626709	0.9993140258789063	-0.009867050170898438	0.027315000534057617	0.9745460205078125	-0.04795500183105469	0.030510299682617186	0.9713920288085938	-0.015588299751281738	0.0387140998840332	1.0125	-0.011015399932861328	0.0379926986694336	1.0068900146484374	-0.008960809707641602	0.042393901824951175	0.9882239990234375	-0.03493429946899414	0.04893130111694336	0.9812839965820312	-0.04474900054931641	0.03434120178222656	1.0376099853515626
1	0.03333333333333333	0.001251320004463195	0.004883530139923095	0.9657100219726562	-0.001946689963340759	-0.011896699905395507	0.9830029907226563	-0.014613300323486329	-0.011130800247192383	1.0083200073242187	-0.020770599365234375	0.014087499618530274	1.0236099853515626	-0.03127169990539551	-0.013633999824523926	0.994426025390625	-0.01848889923095703	-0.01443019962310791	0.981177001953125	-0.023831199645996094	-0.015948100090026854	0.9599990234375	-0.05649739837646484	-0.011626999855041504	0.9775360107421875	-0.01600149917602539	0.0035488300323486327	0.9945770263671875	-0.01286769962310791	0.00552892017364502	0.9890540161132813	-0.014713800430297852	0.007675310134887695	0.9627960205078125	-0.055576499938964845	0.01064050006866455	0.9698829956054688	-0.01723710060119629	0.019277299880981445	1.0010700073242187	-0.01262339973449707	0.02257229995727539	0.9990709838867188	-0.009211999893188477	0.026997200012207033	0.9756480102539062	-0.047968799591064454	0.031109100341796876	0.9721339721679687	-0.021578899383544924	0.03941220092773438	1.0112999877929687	-0.010883399963378906	0.03828749847412109	1.0057899780273438	-0.0085802001953125	0.04255690002441406	0.9885	-0.0359375	0.04874309921264648	0.980385986328125	-0.046012298583984375	0.03455950164794922	1.0393199462890625
2	0.06666666666666667	0.0008258479833602901	0.005506179809570313	0.9658200073242188	-0.0023482999801635743	-0.011410099983215332	0.98289697265625	-0.01501710033416748	-0.010621700286865234	1.0082899780273438	-0.021159999847412108	0.014585499763488769	1.0236599731445313	-0.03163249969482422	-0.013006999969482421	0.9946489868164062	-0.018747200012207033	-0.013984100341796875	0.9809439697265625	-0.02418899917602539	-0.01533209991455078	0.9600650024414062	-0.0568760986328125	-0.011057299613952637	0.9774710083007813	-0.01639520072937012	0.00405408000946045	0.9946829833984375	-0.013255900382995605	0.0061067500114440915	0.9891790161132813	-0.015157500267028808	0.008195619583129882	0.962697998046875	-0.055956798553466795	0.011242300033569337	0.970052978515625	-0.01775200080871582	0.019959600448608398	1.001530029296875	-0.013010800361633301	0.02311050033569336	0.9992100219726563	-0.009608329772949219	0.027481300354003906	0.9757119750976563	-0.04836149978637695	0.031685800552368165	0.9722349853515625	-0.022048700332641603	0.03999689865112305	1.011489990234375	-0.011175700187683105	0.03886790084838867	1.00575	-0.008986980438232421	0.04310150146484375	0.9883920288085938	-0.03637960052490234	0.049356201171875	0.9804990234375	-0.04633589935302734	0.035090999603271486	1.0395999755859375
3	0.1	0.000446051001548767	0.006353010177612304	0.9656370239257812	-0.002720940113067627	-0.010595100402832031	0.9827479858398438	-0.015471199989318847	-0.00987967014312744	1.0081500244140624	-0.02155540084838867	0.015331100463867188	1.0235900268554687	-0.032333999633789065	-0.012177599906921386	0.994583984375	-0.01910820007324219	-0.013172499656677246	0.9806799926757812	-0.02458530044555664	-0.014412699699401855	0.9597650146484376	-0.0572411003112793	-0.010053799629211426	0.97727197265625	-0.01683609962463379	0.004949260234832764	0.9945980224609375	-0.013630999565124511	0.006950019836425781	0.9890139770507812	-0.015559200286865235	0.009069290161132813	0.9624619750976563	-0.05627360153198242	0.012208200454711915	0.9699420166015625	-0.018365900039672853	0.020816099166870116	1.0013400268554689	-0.013413800239562988	0.023919599533081055	0.9990369873046875	-0.010084400177001953	0.028291099548339842	0.9755280151367187	-0.04874800109863281	0.032707698822021486	0.9722440185546875	-0.022199899673461913	0.04075099945068359	1.0113099975585937	-0.011358400344848633	0.039696098327636715	1.0055399780273437	-0.009422739982604981	0.04393539810180664	0.988239990234375	-0.036938098907470705	0.05028219985961914	0.9805059814453125	-0.04663660049438476	0.03582350158691406	1.0395899658203125
